G04 #@! TF.FileFunction,Soldermask,Bot*
%FSLAX46Y46*%
G04 Gerber Fmt 4.6, Leading zero omitted, Abs format (unit mm)*
G04 Created by KiCad (PCBNEW 4.0.7-e2-6376~58~ubuntu14.04.1) date Sat Jan 12 07:03:05 2019*
%MOMM*%
%LPD*%
G01*
G04 APERTURE LIST*
%ADD10C,0.100000*%
%ADD11C,5.700000*%
%ADD12R,2.032000X2.032000*%
%ADD13O,2.032000X2.032000*%
%ADD14C,1.524000*%
%ADD15R,1.998980X1.998980*%
%ADD16O,2.300000X1.600000*%
%ADD17R,1.700000X1.700000*%
%ADD18O,1.700000X1.700000*%
%ADD19C,1.800000*%
%ADD20R,3.960000X5.000000*%
%ADD21R,5.000000X3.960000*%
%ADD22C,2.000000*%
%ADD23O,2.540000X2.032000*%
%ADD24C,1.520000*%
%ADD25R,1.520000X1.520000*%
%ADD26C,2.999740*%
%ADD27R,3.000000X3.000000*%
%ADD28C,3.000000*%
%ADD29C,1.998980*%
G04 APERTURE END LIST*
D10*
D11*
X59000000Y-83000000D03*
X151000000Y-146000000D03*
X151000000Y-83000000D03*
D12*
X153000000Y-91700000D03*
D13*
X153000000Y-89160000D03*
D14*
X136000000Y-123000000D03*
X134730000Y-125540000D03*
X133460000Y-123000000D03*
X132190000Y-125540000D03*
X130920000Y-123000000D03*
X129650000Y-125540000D03*
X118160000Y-122500000D03*
X115620000Y-122500000D03*
X120700000Y-122500000D03*
D15*
X101801640Y-103800000D03*
X90798360Y-103800000D03*
D11*
X59000000Y-146000000D03*
D15*
X129400000Y-115801640D03*
X129400000Y-104798360D03*
D16*
X65020000Y-99800000D03*
X65020000Y-109960000D03*
X57400000Y-99800000D03*
X57400000Y-109960000D03*
X65020000Y-112500000D03*
X57400000Y-112500000D03*
X144380000Y-112500000D03*
X144380000Y-102340000D03*
X152000000Y-112500000D03*
X152000000Y-102340000D03*
X144380000Y-99800000D03*
X152000000Y-99800000D03*
D17*
X136000000Y-102000000D03*
D18*
X138540000Y-102000000D03*
D14*
X124100000Y-101500000D03*
X125370000Y-98960000D03*
X126640000Y-101500000D03*
X127910000Y-98960000D03*
X129180000Y-101500000D03*
X130450000Y-98960000D03*
D19*
X101680000Y-145743000D03*
X91520000Y-145743000D03*
D20*
X92980000Y-147250000D03*
X100220000Y-147250000D03*
D19*
X99140000Y-145743000D03*
X94060000Y-145743000D03*
X96600000Y-145743000D03*
X74080000Y-145743000D03*
X63920000Y-145743000D03*
D20*
X65380000Y-147250000D03*
X72620000Y-147250000D03*
D19*
X71540000Y-145743000D03*
X66460000Y-145743000D03*
X69000000Y-145743000D03*
X64720000Y-83357000D03*
X74880000Y-83357000D03*
D20*
X73420000Y-81850000D03*
X66180000Y-81850000D03*
D19*
X67260000Y-83357000D03*
X72340000Y-83357000D03*
X69800000Y-83357000D03*
X150743000Y-115170000D03*
X150743000Y-125330000D03*
D21*
X152250000Y-123870000D03*
X152250000Y-116630000D03*
D19*
X150743000Y-117710000D03*
X150743000Y-122790000D03*
X150743000Y-120250000D03*
D22*
X111300000Y-126700000D03*
X108760000Y-125430000D03*
X111300000Y-121680000D03*
X108760000Y-120410000D03*
D23*
X114000000Y-137000000D03*
X114000000Y-134460000D03*
X116000000Y-139540000D03*
X118000000Y-137000000D03*
X118000000Y-134460000D03*
D24*
X83450000Y-99460000D03*
X83450000Y-96920000D03*
D25*
X83450000Y-102000000D03*
D26*
X86500000Y-140500000D03*
X86500000Y-126500000D03*
X58000000Y-126500000D03*
X58000000Y-140500000D03*
D27*
X105400000Y-83400000D03*
D28*
X110480000Y-83400000D03*
D29*
X67200000Y-91800000D03*
X57040000Y-91800000D03*
D15*
X133250000Y-140951640D03*
X133250000Y-129948360D03*
X124501640Y-144800000D03*
X113498360Y-144800000D03*
X122000000Y-129998360D03*
X122000000Y-141001640D03*
X88401640Y-111900000D03*
X77398360Y-111900000D03*
M02*
