M48
;DRILL file {KiCad 4.0.7-e2-6376~58~ubuntu14.04.1} date Sat Jan 12 07:03:02 2019
;FORMAT={-:-/ absolute / inch / decimal}
FMAT,2
INCH,TZ
T1C0.016
T2C0.030
T3C0.031
T4C0.032
T5C0.039
T6C0.039
T7C0.040
T8C0.043
T9C0.047
T10C0.047
T11C0.060
T12C0.126
%
G90
G05
M72
T1
X2.2343Y-5.2657
X2.2343Y-5.4311
X2.2382Y-3.8091
X2.2402Y-4.1142
X2.3307Y-4.4961
X2.3307Y-4.6319
X2.3346Y-4.248
X2.3622Y-3.4705
X2.3642Y-3.6201
X2.3661Y-3.8091
X2.3937Y-4.0059
X2.3937Y-4.1142
X2.4311Y-5.2657
X2.4311Y-5.4311
X2.439Y-5.0965
X2.4547Y-4.4114
X2.5Y-4.4961
X2.5Y-4.6319
X2.5Y-4.7343
X2.5315Y-3.6909
X2.5472Y-4.0059
X2.5472Y-4.1142
X2.5472Y-4.2421
X2.5866Y-3.4705
X2.5945Y-4.8425
X2.624Y-5.2657
X2.624Y-5.4311
X2.6319Y-5.0138
X2.6437Y-4.4823
X2.6634Y-3.7677
X2.6634Y-4.0059
X2.6654Y-4.5669
X2.7165Y-5.5157
X2.7205Y-5.1693
X2.7343Y-4.7638
X2.7657Y-4.4823
X2.7736Y-5.4272
X2.7894Y-4.2579
X2.8071Y-3.7087
X2.811Y-4.8425
X2.811Y-5.0138
X2.8169Y-3.4705
X2.8169Y-4.3287
X2.8445Y-5.3327
X2.8622Y-3.8169
X2.8622Y-3.939
X2.872Y-4.1378
X2.8976Y-4.4094
X2.8996Y-5.1339
X2.9291Y-4.7343
X2.9488Y-3.5669
X2.9547Y-5.4075
X2.9783Y-4.2028
X2.9783Y-4.2972
X2.9882Y-4.5295
X3.0059Y-4.6575
X3.0256Y-4.8425
X3.0256Y-4.9665
X3.0256Y-5.1181
X3.0256Y-5.2539
X3.0256Y-5.5315
X3.0551Y-3.8169
X3.0551Y-3.939
X3.128Y-4.2972
X3.128Y-4.5295
X3.1358Y-3.5217
X3.1358Y-3.7008
X3.1634Y-3.9488
X3.1693Y-3.3465
X3.1791Y-5.4075
X3.187Y-4.9665
X3.187Y-5.1181
X3.2067Y-3.8228
X3.2244Y-4.6654
X3.2303Y-5.7972
X3.2638Y-4.5197
X3.2756Y-3.2402
X3.2854Y-3.563
X3.2854Y-5.3012
X3.3268Y-5.6575
X3.372Y-3.8228
X3.372Y-4.0118
X3.3898Y-4.2972
X3.3898Y-5.4075
X3.4055Y-5.1181
X3.4252Y-4.6654
X3.4252Y-4.7835
X3.4252Y-5.7992
X3.4449Y-3.2402
X3.4449Y-3.3622
X3.4449Y-3.5217
X3.4449Y-3.689
X3.4528Y-4.5197
X3.4744Y-3.9783
X3.5177Y-4.9665
X3.5197Y-4.189
X3.561Y-3.5217
X3.561Y-3.8091
X3.6004Y-4.378
X3.6024Y-5.1181
X3.6319Y-4.7185
X3.6319Y-4.8406
X3.6831Y-3.2165
X3.6831Y-3.3622
X3.6831Y-3.5217
X3.6831Y-3.687
X3.6831Y-3.8327
X3.687Y-3.9055
X3.7165Y-3.9783
X3.7244Y-4.3484
X3.7244Y-4.4567
X3.7559Y-4.7185
X3.7559Y-4.8406
X3.7559Y-4.9665
X3.7677Y-3.8091
X3.7894Y-4.1654
X3.7953Y-4.5472
X3.8012Y-5.1181
X3.8031Y-3.5217
X3.8543Y-4.3484
X3.8642Y-3.9055
X3.9154Y-3.2165
X3.9154Y-3.3622
X3.937Y-3.4843
X3.937Y-3.5925
X3.9606Y-4.5472
X3.9606Y-4.7185
X3.9606Y-4.8406
X3.9606Y-4.9665
X3.9705Y-3.8484
X3.9921Y-4.3583
X4.0039Y-4.1654
X4.0079Y-5.1181
X4.0157Y-3.7343
X4.0512Y-4.2224
X4.065Y-3.4843
X4.065Y-3.5925
X4.0846Y-3.9961
X4.1299Y-4.3583
X4.1299Y-4.5472
X4.1437Y-5.6949
X4.1437Y-5.8425
X4.1594Y-4.7185
X4.1594Y-4.8406
X4.1594Y-4.9665
X4.2087Y-3.8406
X4.2185Y-3.3917
X4.2244Y-3.5925
X4.2244Y-3.7362
X4.2283Y-5.1181
X4.2343Y-3.9469
X4.2343Y-4.1358
X4.2815Y-4.8406
X4.2835Y-4.4685
X4.315Y-5.6929
X4.315Y-5.8425
X4.3327Y-3.3917
X4.3327Y-3.5925
X4.3917Y-3.7362
X4.3917Y-3.8406
X4.3917Y-3.9469
X4.3917Y-4.1358
X4.3937Y-4.6634
X4.4272Y-3.5
X4.437Y-5.0945
X4.4528Y-4.3248
X4.4528Y-4.4606
X4.4547Y-5.189
X4.4783Y-4.5846
X4.4783Y-5.5846
X4.4902Y-5.8425
X4.502Y-4.7736
X4.502Y-4.8898
X4.5217Y-3.374
X4.5217Y-3.5
X4.5315Y-3.8406
X4.5315Y-3.9469
X4.5315Y-4.1358
X4.5394Y-4.5236
X4.5413Y-4.3819
X4.563Y-4.2087
X4.5945Y-5.1713
X4.5965Y-4.2795
X4.6004Y-4.5846
X4.6024Y-3.6811
X4.6024Y-4.8898
X4.6024Y-5.0177
X4.6181Y-4.1004
X4.6319Y-4.3248
X4.6398Y-4.2264
X4.6614Y-3.9469
X4.6614Y-4.5236
X4.6654Y-5.5197
X4.685Y-5.6398
X4.685Y-5.8425
X4.6969Y-5.1949
X4.7185Y-4.8898
X4.7185Y-5.0177
X4.7205Y-4.5846
X4.7303Y-4.4016
X4.7362Y-5.3366
X4.748Y-4.0807
X4.7795Y-4.4941
X4.7933Y-3.7362
X4.7933Y-3.8406
X4.7933Y-3.9567
X4.8504Y-5.8425
X4.8524Y-4.4016
X4.8602Y-4.5846
X4.8602Y-4.6752
X4.8602Y-4.8898
X4.8602Y-5.0177
X4.8898Y-5.5394
X4.8898Y-5.6122
X4.8917Y-5.3366
X4.937Y-3.8307
X4.9646Y-4.2638
X4.9665Y-4.5157
X4.9744Y-3.7362
X4.9803Y-5.2303
X4.9843Y-4.0768
X4.998Y-5.4055
X5.0177Y-4.3484
X5.0177Y-5.7539
X5.0177Y-5.8425
X5.0217Y-4.7795
X5.0217Y-4.8898
X5.0217Y-5.0984
X5.0305Y-4.6368
X5.0433Y-5.5472
X5.0866Y-3.8327
X5.0945Y-5.0177
X5.0945Y-5.0984
X5.1339Y-5.1772
X5.1358Y-3.7362
X5.1555Y-5.2874
X5.1555Y-5.4055
X5.1594Y-5.565
X5.1594Y-5.6634
X5.1594Y-5.7539
X5.1594Y-5.8425
X5.1752Y-4.3484
X5.1791Y-4.563
X5.2047Y-3.9902
X5.2047Y-4.122
X5.2047Y-4.2343
X5.2047Y-4.8031
X5.2106Y-4.4587
X5.2461Y-5.0177
X5.2874Y-3.8583
X5.2874Y-4.2343
X5.2953Y-3.7362
X5.2972Y-5.6634
X5.2972Y-5.7539
X5.2972Y-5.8425
X5.3366Y-5.2874
X5.3386Y-4.7146
X5.372Y-4.2343
X5.372Y-4.3484
X5.372Y-4.4764
X5.372Y-4.5965
X5.4075Y-3.9272
X5.4331Y-4.6634
X5.437Y-5.565
X5.437Y-5.6634
X5.437Y-5.7539
X5.437Y-5.8425
X5.4429Y-5.3346
X5.4626Y-4.4783
X5.4626Y-4.5965
X5.4626Y-4.7461
X5.4646Y-3.7362
X5.4882Y-5.0512
X5.5256Y-3.9272
X5.5256Y-4.0689
X5.5787Y-4.9547
X5.5787Y-5.6634
X5.5787Y-5.7539
X5.5787Y-5.8425
X5.5846Y-4.5965
X5.5846Y-4.7461
X5.6024Y-3.7362
X5.6358Y-4.2835
X5.6378Y-4.1102
X5.6614Y-3.8465
X5.6732Y-5.0512
X5.6969Y-4.3445
X5.6969Y-4.5217
X5.6969Y-4.5965
X5.6969Y-4.7461
X5.6969Y-4.8858
X5.7185Y-5.3346
X5.7185Y-5.565
X5.7185Y-5.6634
X5.7185Y-5.7539
X5.7185Y-5.8425
X5.7382Y-4.1811
X5.7638Y-3.5197
X5.7638Y-3.7106
X5.7697Y-5.1358
X5.7756Y-4.3898
X5.7992Y-4.2421
X5.8287Y-5.2874
X5.8366Y-3.9843
X5.8445Y-5.628
X5.8701Y-5.0354
X5.876Y-3.5197
X5.8898Y-4.2421
X5.8898Y-4.3504
X5.9035Y-3.8642
X5.9035Y-4.1417
X5.9508Y-5.0118
X5.9508Y-5.1457
X5.9508Y-5.2874
X5.9508Y-5.4252
X5.9508Y-5.5768
X5.9882Y-4.1043
X5.9882Y-4.2421
X5.9882Y-4.3504
X6.Y-3.748
X6.0512Y-5.2874
X6.0512Y-5.4252
X6.0512Y-5.5768
T2
X4.8858Y-3.9961
X4.9358Y-3.8961
X4.9858Y-3.9961
X5.0358Y-3.8961
X5.0858Y-3.9961
X5.1043Y-4.9425
X5.1358Y-3.8961
X5.1543Y-4.8425
X5.2043Y-4.9425
X5.2543Y-4.8425
X5.3043Y-4.9425
X5.3543Y-4.8425
T3
X3.2854Y-3.8157
X3.2854Y-3.9157
X3.2854Y-4.0157
T4
X4.552Y-4.8228
X4.652Y-4.8228
X4.752Y-4.8228
T5
X2.2598Y-3.9291
X2.2598Y-4.3291
X2.2598Y-4.4291
X2.5598Y-3.9291
X2.5598Y-4.3291
X2.5598Y-4.4291
X4.2819Y-4.7406
X4.2819Y-4.9382
X4.3819Y-4.7906
X4.3819Y-4.9882
X5.3543Y-4.0157
X5.4543Y-4.0157
X5.6843Y-3.9291
X5.6843Y-4.0291
X5.6843Y-4.4291
X5.9843Y-3.9291
X5.9843Y-4.0291
X5.9843Y-4.4291
T6
X2.2457Y-3.6142
X2.6457Y-3.6142
X3.0669Y-4.4055
X3.4607Y-4.4055
X3.5944Y-4.0866
X3.9882Y-4.0866
X4.4881Y-5.7008
X4.8031Y-5.1377
X4.8031Y-5.5315
X4.8819Y-5.7008
X5.0945Y-4.1456
X5.0945Y-4.5394
X5.2461Y-5.1358
X5.2461Y-5.5296
T7
X6.0236Y-3.5102
X6.0236Y-3.6102
T8
X2.5165Y-5.7379
X2.548Y-3.2818
X2.6165Y-5.7379
X2.648Y-3.2818
X2.7165Y-5.7379
X2.748Y-3.2818
X2.8165Y-5.7379
X2.848Y-3.2818
X2.9165Y-5.7379
X2.948Y-3.2818
X3.6031Y-5.7379
X3.7031Y-5.7379
X3.8031Y-5.7379
X3.9031Y-5.7379
X4.0031Y-5.7379
X5.9348Y-4.5343
X5.9348Y-4.6343
X5.9348Y-4.7343
X5.9348Y-4.8343
X5.9348Y-4.9343
T9
X2.2835Y-4.9803
X2.2835Y-5.5315
X3.4055Y-4.9803
X3.4055Y-5.5315
T10
X4.4882Y-5.2937
X4.4882Y-5.3937
X4.5669Y-5.4937
X4.6457Y-5.2937
X4.6457Y-5.3937
T11
X4.1496Y-3.2835
X4.3496Y-3.2835
T12
X2.3228Y-3.2677
X2.3228Y-5.748
X5.9449Y-3.2677
X5.9449Y-5.748
T0
M30
